<svg xmlns="http://www.w3.org/2000/svg" width="24" height="24"><path d="M19.7 23.5H4.3c-2.1 0-3.8-1.7-3.8-3.8V4.3C.5 2.2 2.2.5 4.3.5h15.3c2.1 0 3.8 1.7 3.8 3.8v15.3c.1 2.2-1.6 3.9-3.7 3.9zM4.3 1.5c-1.6 0-2.8 1.3-2.8 2.8v15.3c0 1.6 1.3 2.8 2.8 2.8h15.3c1.6 0 2.8-1.3 2.8-2.8V4.3c0-1.6-1.3-2.8-2.8-2.8H4.3z"/><path d="M11.9 18.8h-.3c-.5 0-1-.3-1.3-.5-.1-.1-.2-.2-.4-.2-.3-.2-.6-.4-.9-.5-.3-.1-.8 0-1.3.1h-.5c-.2-.1-.4-.2-.5-.5 0-.1-.1-.2-.1-.3v-.1h-.3c-.4-.1-.7-.2-1.1-.4-.1 0-.2-.1-.3-.2-.2-.2-.2-.5-.2-.8 0-.1.1-.1.1-.2.2-.3.4-.3.6-.4.4-.1.7-.2.9-.4.5-.4.9-.8 1.2-1.4.1-.2.1-.3.1-.4l-.1-.1-.2-.1c-.3-.1-.5-.2-.8-.4l-.1-.1c-.2-.1-.3-.3-.3-.5v-.1c0-.2.1-.5.5-.8.2-.2.5-.2.8-.2h.3c.1 0 .1 0 .2.1v-.7c0-.7 0-1.3.2-2v-.1c.3-.6.7-1.2 1.3-1.6.9-.7 1.9-.8 2.6-.8h.7c.7.1 1.4.3 1.9.7.8.6 1.4 1.4 1.6 2.4v.1c.1.4.1.9 0 1.4v.6h.1l.2-.1c.3-.1.6-.1.9.1.1.1.3.2.5.5.1.2.1.5 0 .7-.1.1-.2.2-.2.3-.3.3-.6.4-.9.5-.3.1-.3.2-.4.2.2.3.3.6.6.9.4.5.9.9 1.5 1.1.2 0 .3.1.5.2.1 0 .1.1.1.1.1.1.2.3.2.4 0 .2 0 .4-.1.5v.1c-.2.2-.4.4-.6.4h-.2c-.3.1-.6.2-1 .3v.4c0 .1-.1.2-.1.3-.1.2-.3.2-.5.3h-.2c-.3 0-.6-.1-.9-.1H15c-.2.1-.5.3-.8.5l-.6.3c-.3.2-.6.3-1 .3-.3.2-.5.2-.7.2zm-.2-1h.8c.2 0 .4-.1.5-.2h.1c.2-.1.3-.2.5-.3.3-.2.6-.4 1-.5.2-.1.4-.1.6-.1h1.2c.1-.2.1-.4.3-.6.2-.2.4-.2.6-.2.2 0 .4-.1.6-.2-.7-.2-1.4-.7-1.9-1.4-.3-.4-.5-.8-.7-1.2-.1-.3-.1-.7.1-.9.2-.3.5-.4.8-.5.2-.1.4-.1.5-.2h-.1c-.1 0-.2.1-.4.1h-.7c-.2-.1-.3-.2-.3-.4V8.7c-.2-.9-.6-1.5-1.2-2-.4-.3-.9-.5-1.5-.5H12c-.9 0-1.6.2-2.1.6-.4.4-.7.8-.9 1.3-.2.5-.2 1-.1 1.6V11c0 .2-.2.4-.4.5h-.8c-.1 0-.2 0-.3-.1.1.1.3.1.4.2H8c.4.2.6.4.7.7.1.4-.1.8-.2 1-.4.7-.9 1.3-1.5 1.8-.3.2-.6.3-.9.4.1 0 .3.1.4.1h.2c.2 0 .3.1.5.1.1 0 .2.1.2.2v.2c0 .1.1.2.1.3.5-.1 1.1-.1 1.6 0s.8.4 1.2.6c.1.1.2.1.3.2.4.4.7.6 1.1.6-.1 0-.1 0 0 0z"/></svg>