<?xml version="1.0" standalone="no"?>
<!DOCTYPE svg PUBLIC "-//W3C//DTD SVG 20010904//EN"
 "http://www.w3.org/TR/2001/REC-SVG-20010904/DTD/svg10.dtd">
<svg version="1.0" xmlns="http://www.w3.org/2000/svg"
 width="225.000000pt" height="225.000000pt" viewBox="0 0 225.000000 225.000000"
 preserveAspectRatio="xMidYMid meet">

<g transform="translate(0.000000,225.000000) scale(0.100000,-0.100000)"
fill="#000000" stroke="none">
<path d="M900 2211 c-115 -26 -169 -45 -275 -97 -279 -137 -491 -397 -572
-704 -26 -97 -28 -119 -27 -285 0 -162 3 -190 26 -277 56 -206 139 -349 287
-499 143 -143 282 -230 447 -277 149 -43 178 -47 344 -47 146 1 177 4 270 28
389 101 692 402 797 793 24 90 27 116 27 279 0 165 -2 188 -27 279 -66 242
-211 458 -406 607 -86 65 -263 152 -376 185 -78 23 -113 27 -260 30 -140 3
-185 0 -255 -15z m779 -663 c17 -30 24 11 -74 -448 -25 -118 -60 -282 -77
-365 -51 -248 -60 -250 -306 -63 -56 43 -106 78 -110 78 -4 -1 -41 -32 -82
-70 -71 -66 -105 -89 -117 -77 -3 3 -1 72 4 153 l9 147 46 41 c44 40 205 185
380 342 48 43 86 79 84 81 -5 5 -241 -141 -521 -323 -66 -43 -127 -78 -135
-78 -30 1 -295 87 -312 102 -28 24 -23 59 11 77 26 13 177 72 536 210 229 88
354 136 465 179 134 53 176 55 199 14z"/>
</g>
</svg>
