<svg version="1.0" xmlns="http://www.w3.org/2000/svg"
    width="24" height="24" viewBox="0 0 284.000000 177.000000"
    preserveAspectRatio="xMidYMid meet">

    <g transform="translate(0.000000,177.000000) scale(0.100000,-0.100000)"
        fill="#000000" stroke="none">
        <path d="M670 1595 c0 -2 130 -179 290 -392 159 -213 289 -391 287 -395 -2 -6
-149 -166 -460 -500 l-128 -138 63 0 64 0 259 280 c142 154 261 280 264 280 3
-1 100 -127 215 -280 l208 -280 214 0 c117 0 215 3 218 8 2 4 -133 191 -300
415 l-305 408 32 37 c18 20 139 153 271 294 131 141 238 259 238 262 0 3 -26
6 -58 6 l-58 0 -99 -107 c-54 -60 -151 -164 -215 -233 -64 -69 -128 -138 -142
-154 l-25 -30 -197 262 -196 262 -220 0 c-121 0 -220 -2 -220 -5z m855 -701
c253 -338 462 -619 463 -624 2 -6 -37 -10 -101 -10 l-105 0 -444 593 c-244
325 -454 607 -466 625 l-23 32 108 0 108 -1 460 -615z"/>
    </g>
</svg>
