<svg xmlns="http://www.w3.org/2000/svg" width="21" height="21" viewBox="0 0 21 21">
  <defs>
    <style>
      .cls-1 {
        fill: none;
      }
    </style>
  </defs>
  <g id="Layer_2" data-name="Layer 2">
    <g id="Layer_1-2" data-name="Layer 1">
      <g>
        <rect class="cls-1" width="21" height="21"/>
        <g id="Layer_1-3" data-name="Layer_1">
          <path d="M10.5,1.5a8.91,8.91,0,0,1,5.24,1.69A9.05,9.05,0,0,1,19,7.63h0a.28.28,0,0,1-.18.35.18.18,0,0,1-.1,0H2.24A.28.28,0,0,1,2,7.72a.2.2,0,0,1,0-.11A9,9,0,0,1,10.5,1.5Zm4.91,2.14A8.43,8.43,0,0,0,2.64,7.44H18.36A8.46,8.46,0,0,0,15.41,3.64ZM19,13.39A9,9,0,0,1,5.26,17.81,9,9,0,0,1,2,13.37H2A.28.28,0,0,1,2.15,13h16.6a.27.27,0,0,1,.28.28.22.22,0,0,1,0,.11Zm-3.6,4a8.44,8.44,0,0,0,2.95-3.79H2.64a8.44,8.44,0,0,0,2.95,3.79,8.42,8.42,0,0,0,9.82,0Z"/>
          <path d="M17.45,16.21a9.05,9.05,0,0,1-3.1,2.42A9,9,0,0,1,3.54,16.19h0a.27.27,0,0,1,0-.39.47.47,0,0,1,.09-.06,18.9,18.9,0,0,1,3.34-1,18,18,0,0,1,10.34,1h0a.27.27,0,0,1,.15.36.15.15,0,0,1-.06.09Zm-3.34,1.92a8.75,8.75,0,0,0,2.67-2,16.63,16.63,0,0,0-2.9-.83,17.53,17.53,0,0,0-6.77,0,17.44,17.44,0,0,0-2.89.83,8.51,8.51,0,0,0,2.67,2,8.45,8.45,0,0,0,7.22,0Z"/>
          <path d="M16.78,4.87a8.63,8.63,0,0,0-2.67-2,8.45,8.45,0,0,0-7.22,0,8.51,8.51,0,0,0-2.67,2,16.78,16.78,0,0,0,2.89.83A17.24,17.24,0,0,0,10.5,6a17.24,17.24,0,0,0,3.39-.33A17.72,17.72,0,0,0,16.78,4.87Zm-2.43-2.5a9.05,9.05,0,0,1,3.1,2.42l.06.09a.28.28,0,0,1-.16.37h0a17.48,17.48,0,0,1-3.35,1,18.38,18.38,0,0,1-3.5.34A18.27,18.27,0,0,1,7,6.25a18,18,0,0,1-3.33-1l-.1,0a.29.29,0,0,1,0-.4h0A9,9,0,0,1,14.35,2.37Z"/>
          <path d="M10.5,1.5a3.71,3.71,0,0,1,2.9,1.75,10.77,10.77,0,0,1,1.73,4.42h0A.29.29,0,0,1,14.9,8H6.15a.27.27,0,0,1-.28-.28.13.13,0,0,1,0-.06A10.72,10.72,0,0,1,7.6,3.25,3.69,3.69,0,0,1,10.5,1.5ZM13,3.58A3.19,3.19,0,0,0,10.5,2.06,3.19,3.19,0,0,0,8.05,3.58,10,10,0,0,0,6.49,7.44h8A9.91,9.91,0,0,0,13,3.58Zm2.17,9.76a10.78,10.78,0,0,1-1.72,4.41,3.69,3.69,0,0,1-2.9,1.75,3.71,3.71,0,0,1-2.9-1.75,10.77,10.77,0,0,1-1.73-4.42h0A.28.28,0,0,1,6.1,13h8.75a.27.27,0,0,1,.28.28.13.13,0,0,1,0,.06ZM13,17.42a10,10,0,0,0,1.56-3.86h-8a9.91,9.91,0,0,0,1.56,3.86,3.17,3.17,0,0,0,2.45,1.52,3.17,3.17,0,0,0,2.44-1.52Z"/>
          <path d="M.48,7.44H20.8v6.12H.2V7.44ZM20.24,8H.76v5H20.24Z"/>
          <path d="M3,12.13,2,8.87h.57L3,10.75l.19.7s.07-.26.17-.67l.52-1.92h.57L5,10.76l.17.62.18-.63.56-1.89h.54l-1,3.27H4.83l-.52-2-.13-.56-.66,2.51H3Zm6.31,0-1-3.26h.58l.51,1.88.2.7s.06-.26.17-.67l.52-1.92h.57l.49,1.9.16.62.19-.63.56-1.89h.54l-1,3.27h-.58l-.52-2-.13-.56-.66,2.51H9.26Zm6.3,0-1-3.26h.57l.52,1.88.2.7s.06-.26.16-.67l.52-1.92h.58l.49,1.9.16.62.19-.63.56-1.89h.54l-1,3.27h-.57l-.52-2-.13-.56-.66,2.51h-.58Z"/>
        </g>
      </g>
    </g>
  </g>
</svg>
